<?xml version="1.0" encoding="UTF-8"?>
<svg version="1.1" viewBox="0 0 1440 1440" width="360" height="360" xmlns="http://www.w3.org/2000/svg">
<path transform="translate(0)" d="m0 0h1440v1440h-1440z" fill="#FDFDFD"/>
<path transform="translate(500,278)" d="m0 0h441l24 2 25 5 20 6 19 8 21 11 15 10 13 10 10 9 2 1v2l4 2 13 14 13 17 11 17 9 17 8 20 6 19 4 19 2 15 1 16-1 458-3 21-6 25-8 21-9 19-12 20-11 14-12 14-13 13-11 9-16 12-23 13-16 7-22 8-26 6-15 2-15 1-45 1h-253l-147-1-28-3-23-5-27-9-21-10-18-11-16-12-14-12-13-13-9-11-9-12-10-16-10-19-9-23-6-22-4-24-1-14v-457l3-23 6-25 9-25 13-25 12-18 13-16 7-8 12-12 14-11 12-9 15-9 16-8 19-8 19-6 26-5z" fill="#FDFDFD"/>
<path transform="translate(500,278)" d="m0 0h441l24 2 25 5 20 6 19 8 21 11 15 10 13 10 10 9 2 1v2l4 2 13 14 13 17 11 17 9 17 8 20 6 19 4 19 2 15 1 16-1 458-3 21-6 25-8 21-9 19-12 20-11 14-12 14-13 13-11 9-16 12-23 13-16 7-22 8-26 6-15 2-15 1-45 1h-253l-147-1-28-3-23-5-27-9-21-10-18-11-16-12-14-12-13-13-9-11-9-12-10-16-10-19-9-23-6-22-4-24-1-14v-457l3-23 6-25 9-25 13-25 12-18 13-16 7-8 12-12 14-11 12-9 15-9 16-8 19-8 19-6 26-5zm-7 66-26 4-19 6-25 12-16 11-11 10-8 7-7 8-13 18-12 23-6 18-3 12-3 24-1 24v405l2 28 4 21 6 18 10 21 7 11 10 13 11 12 11 10 14 10 16 9 19 8 19 5 19 3h454l22-3 19-5 20-8 14-8 12-8 10-9 8-7 10-11 10-14 9-16 7-16 6-20 3-19 1-12v-402l-1-47-3-21-7-23-8-17-11-18-11-13-11-12-15-12-16-10-16-8-17-6-18-4-18-2z" fill="#DC255D"/>
<path transform="translate(716,561)" d="m0 0 22 1 17 3 18 5 19 8 12 7 11 8 10 8 10 9 7 8 14 19 12 25 6 20 3 16 1 9v28l-4 23-8 24-11 21-10 14-12 14-13 12-19 13-15 8-19 7-21 5-23 2-24-1-23-5-15-5-19-9-14-9-10-8-10-9-12-13-9-13-9-16-7-16-6-21-3-18v-31l2-13 4-17 4-12 10-21 10-15 7-9 12-13 8-7 14-10 17-10 22-9 22-5z" fill="#FDFDFD"/>
<path transform="translate(703,496)" d="m0 0h34l18 2 23 5 26 9 25 12 16 10 11 8 11 9 13 12 13 14 12 16 11 18 12 25 8 24 5 23 2 15 1 14v14l-1 18-4 24-5 17-6 18-12 25-10 16-8 11-8 10-11 12-10 10-14 11-14 10-15 9-21 10-27 9-18 4-21 3h-38l-27-4-22-6-19-7-25-12-18-12-14-11-12-11-10-10-9-11-9-12-9-14-12-23-9-24-5-19-4-25-1-9v-26l3-25 6-25 7-21 12-25 10-16 8-11 9-11 9-10 10-10 11-9 12-9 18-11 16-8 14-6 21-7 23-5zm13 65-22 2-22 5-24 10-18 11-12 9-15 14-9 11-10 15-9 17-5 13-4 14-3 13-1 9v31l4 22 6 20 10 21 7 11 9 12 14 15 13 11 14 9 15 8 16 6 18 5 11 2 24 1 23-2 21-5 19-7 20-11 16-12 13-12 11-13 7-10 8-14 7-15 6-19 4-23v-28l-3-21-4-15-6-16-11-21-10-13-7-8-8-9-14-11-14-10-16-8-18-7-21-5-8-1z" fill="#DC255D"/>
<path transform="translate(964,436)" d="m0 0h13l11 3 10 5 10 9 6 8 5 12 1 4v18l-3 10-6 11-11 11-14 7-6 2h-19l-9-2-12-7-10-10-6-9-3-10-1-4v-15l3-11 5-10 9-10 10-7 10-4z" fill="#DC255D"/>
</svg>
